<?xml version="1.0" encoding="UTF-8"?><svg xmlns="http://www.w3.org/2000/svg" xmlns:xlink="http://www.w3.org/1999/xlink" contentScriptType="text/ecmascript" width="375" zoomAndPan="magnify" contentStyleType="text/css" viewBox="0 0 375 374.999991" height="374.999991" preserveAspectRatio="xMidYMid meet" version="1.0"><defs><clipPath id="clip-0"><path d="M 112.5 112.5 L 262.5 112.5 L 262.5 262.5 L 112.5 262.5 Z M 112.5 112.5 " clip-rule="nonzero"/></clipPath></defs><g clip-path="url(#clip-0)"><path fill="rgb(21.958923%, 71.369934%, 100%)" d="M 141.160156 199.5 C 138.535156 198.234375 135.605469 197.5 132.5 197.5 C 121.472656 197.5 112.5 206.472656 112.5 217.5 C 112.5 228.527344 121.472656 237.5 132.5 237.5 C 139.421875 237.5 145.527344 233.964844 149.121094 228.609375 L 168.011719 238.066406 C 167.6875 239.492188 167.5 240.976562 167.5 242.5 C 167.5 253.527344 176.472656 262.5 187.5 262.5 C 198.527344 262.5 207.5 253.527344 207.5 242.5 C 207.5 238.355469 206.234375 234.503906 204.0625 231.304688 L 230.609375 203.546875 C 233.941406 206.015625 238.046875 207.5 242.5 207.5 C 253.527344 207.5 262.5 198.527344 262.5 187.5 C 262.5 176.472656 253.527344 167.5 242.5 167.5 C 237.886719 167.5 233.644531 169.085938 230.253906 171.71875 L 203.28125 144.746094 C 205.914062 141.355469 207.5 137.113281 207.5 132.5 C 207.5 121.472656 198.527344 112.5 187.5 112.5 C 176.472656 112.5 167.5 121.472656 167.5 132.5 C 167.5 134.019531 167.683594 135.496094 168.011719 136.921875 L 150.28125 143.382812 C 146.953125 136.929688 140.242188 132.5 132.5 132.5 C 121.472656 132.5 112.5 141.472656 112.5 152.5 C 112.5 163.527344 121.472656 172.5 132.5 172.5 C 135.34375 172.5 138.046875 171.894531 140.5 170.816406 L 149.703125 186.304688 Z M 132.5 232.5 C 124.226562 232.5 117.5 225.773438 117.5 217.5 C 117.5 209.226562 124.226562 202.5 132.5 202.5 C 140.773438 202.5 147.5 209.226562 147.5 217.5 C 147.5 225.773438 140.773438 232.5 132.5 232.5 Z M 151.347656 224.128906 C 152.078125 222.050781 152.5 219.824219 152.5 217.5 C 152.5 211.367188 149.71875 205.878906 145.363281 202.207031 L 152.550781 191.101562 L 174.230469 227.578125 C 172.40625 229.203125 170.878906 231.148438 169.746094 233.335938 Z M 187.5 152.5 C 192.113281 152.5 196.355469 150.914062 199.746094 148.28125 L 226.722656 175.257812 C 225.105469 177.335938 223.894531 179.738281 223.199219 182.355469 L 207.492188 180.195312 C 207.488281 180.128906 207.5 180.066406 207.5 180 C 207.5 168.972656 198.527344 160 187.5 160 C 180.578125 160 174.46875 163.535156 170.878906 168.890625 L 167.898438 167.402344 L 178.84375 150.5 C 181.464844 151.765625 184.394531 152.5 187.5 152.5 Z M 190 222.671875 L 190 199.824219 C 198.125 198.804688 204.734375 192.898438 206.804688 185.144531 L 222.511719 187.304688 C 222.511719 187.371094 222.5 187.433594 222.5 187.5 C 222.5 192.273438 224.183594 196.65625 226.988281 200.101562 L 200.738281 227.546875 C 197.796875 224.941406 194.09375 223.1875 190 222.671875 Z M 187.5 165 C 195.773438 165 202.5 171.726562 202.5 180 C 202.5 188.273438 195.773438 195 187.5 195 C 179.226562 195 172.5 188.273438 172.5 180 C 172.5 171.726562 179.226562 165 187.5 165 Z M 168.652344 173.371094 C 167.921875 175.449219 167.5 177.675781 167.5 180 C 167.5 190.179688 175.148438 198.589844 185 199.828125 L 185 222.675781 C 182.628906 222.972656 180.390625 223.683594 178.355469 224.734375 L 155.585938 186.417969 L 165.164062 171.628906 Z M 187.5 257.5 C 179.226562 257.5 172.5 250.773438 172.5 242.5 C 172.5 234.226562 179.226562 227.5 187.5 227.5 C 195.773438 227.5 202.5 234.226562 202.5 242.5 C 202.5 250.773438 195.773438 257.5 187.5 257.5 Z M 242.5 172.5 C 250.773438 172.5 257.5 179.226562 257.5 187.5 C 257.5 195.773438 250.773438 202.5 242.5 202.5 C 234.226562 202.5 227.5 195.773438 227.5 187.5 C 227.5 179.226562 234.226562 172.5 242.5 172.5 Z M 187.5 117.5 C 195.773438 117.5 202.5 124.226562 202.5 132.5 C 202.5 140.773438 195.773438 147.5 187.5 147.5 C 179.226562 147.5 172.5 140.773438 172.5 132.5 C 172.5 124.226562 179.226562 117.5 187.5 117.5 Z M 169.71875 141.617188 C 170.941406 143.988281 172.613281 146.085938 174.636719 147.792969 L 163.398438 165.152344 L 151.347656 159.128906 C 152.078125 157.050781 152.5 154.824219 152.5 152.5 C 152.5 150.980469 152.316406 149.503906 151.988281 148.078125 Z M 117.5 152.5 C 117.5 144.226562 124.226562 137.5 132.5 137.5 C 140.773438 137.5 147.5 144.226562 147.5 152.5 C 147.5 160.773438 140.773438 167.5 132.5 167.5 C 124.226562 167.5 117.5 160.773438 117.5 152.5 Z M 144.789062 168.246094 C 146.460938 166.9375 147.933594 165.378906 149.121094 163.609375 L 160.664062 169.378906 L 152.734375 181.621094 Z M 144.789062 168.246094 " fill-opacity="1" fill-rule="nonzero"/></g></svg>